<svg width="112" height="81" viewBox="0 0 112 81" fill="none" xmlns="http://www.w3.org/2000/svg">
<g filter="url(#filter0_dd_4_5)">
<path d="M55.6719 38.5781C55.6719 42.7344 55.25 46.7031 54.4062 50.4844C53.5938 54.2656 52.2344 57.6094 50.3281 60.5156C48.4531 63.4219 46.0156 65.75 43.0156 67.5C40.0469 69.2188 36.4219 70.0781 32.1406 70.0781C27.8594 70.0781 24.2344 69.2031 21.2656 67.4531C18.2969 65.6719 15.8594 63.3281 13.9531 60.4219C12.0781 57.5156 10.7188 54.1562 9.875 50.3438C9.0625 46.5312 8.65625 42.5781 8.65625 38.4844C8.65625 34.3906 9.0625 30.4375 9.875 26.625C10.7188 22.8125 12.0781 19.4375 13.9531 16.5C15.8594 13.5625 18.2969 11.2187 21.2656 9.46875C24.2344 7.6875 27.8594 6.79688 32.1406 6.79688C33.3594 6.79688 34.6094 6.96875 35.8906 7.3125C37.1719 7.65625 38.3906 8.1875 39.5469 8.90625C40.7031 9.59375 41.7188 10.4531 42.5938 11.4844C43.5 12.5156 44.1406 13.7031 44.5156 15.0469V7.82812H53.2812V29.5312H44.5156C44.5156 27.625 44.2188 25.8281 43.625 24.1406C43.0312 22.4219 42.1875 20.9219 41.0938 19.6406C40 18.3594 38.6875 17.3594 37.1562 16.6406C35.625 15.8906 33.9531 15.5156 32.1406 15.5156C29.3906 15.5156 27.1406 16.2031 25.3906 17.5781C23.6406 18.9531 22.2344 20.7344 21.1719 22.9219C20.1094 25.1094 19.3594 27.5625 18.9219 30.2812C18.5156 33 18.3125 35.7344 18.3125 38.4844C18.3125 41.2344 18.5156 43.9688 18.9219 46.6875C19.3594 49.4062 20.0938 51.8594 21.125 54.0469C22.1562 56.2031 23.5625 57.9531 25.3438 59.2969C27.125 60.6406 29.3906 61.3125 32.1406 61.3125C36.1094 61.3125 39.3125 60.0469 41.75 57.5156C44.1875 54.9844 45.8594 51.0625 46.7656 45.75H33.875V37.0312H55.6719V38.5781ZM103.391 16.5938H74V33.4688H96.9219V42.2344H74V69H64.2969V7.82812H103.391V16.5938Z" fill="#32245F"/>
</g>
<defs>
<filter id="filter0_dd_4_5" x="0.65625" y="0.796875" width="110.734" height="79.2812" filterUnits="userSpaceOnUse" color-interpolation-filters="sRGB">
<feFlood flood-opacity="0" result="BackgroundImageFix"/>
<feColorMatrix in="SourceAlpha" type="matrix" values="0 0 0 0 0 0 0 0 0 0 0 0 0 0 0 0 0 0 127 0" result="hardAlpha"/>
<feMorphology radius="2" operator="dilate" in="SourceAlpha" result="effect1_dropShadow_4_5"/>
<feOffset dy="2"/>
<feGaussianBlur stdDeviation="3"/>
<feColorMatrix type="matrix" values="0 0 0 0 0 0 0 0 0 0 0 0 0 0 0 0 0 0 0.15 0"/>
<feBlend mode="normal" in2="BackgroundImageFix" result="effect1_dropShadow_4_5"/>
<feColorMatrix in="SourceAlpha" type="matrix" values="0 0 0 0 0 0 0 0 0 0 0 0 0 0 0 0 0 0 127 0" result="hardAlpha"/>
<feOffset dy="1"/>
<feGaussianBlur stdDeviation="1"/>
<feColorMatrix type="matrix" values="0 0 0 0 0 0 0 0 0 0 0 0 0 0 0 0 0 0 0.3 0"/>
<feBlend mode="normal" in2="effect1_dropShadow_4_5" result="effect2_dropShadow_4_5"/>
<feBlend mode="normal" in="SourceGraphic" in2="effect2_dropShadow_4_5" result="shape"/>
</filter>
</defs>
</svg>
